<?xml version="1.0" encoding="UTF-8"?>
<svg width="28.852mm" height="34.919mm" version="1.1" viewBox="0 0 28.852 34.919" xmlns="http://www.w3.org/2000/svg">
 <g transform="translate(-29.006 302.35)">
  <path transform="matrix(.26458 0 0 .26458 0 -1e3)" d="m217.27 2670.4v-32.143h-106.23v106.23h25.357" fill="none" stroke="#333" stroke-width="2.8119"/>
  <path d="m49.028-292.7q2.9215 0 4.7315 2.2864 1.81 2.2546 1.81 6.6686 0 4.4457-1.8735 6.7321t-4.795 2.2864q-1.8735 0-2.985-0.66685-1.1114-0.69861-1.81-1.556h-0.25404q0.25404 1.3337 0.25404 2.5404v6.9861h-4.7315v-24.959h3.8424l0.66685 2.2546h0.22228q0.69861-1.0479 1.8735-1.81t3.0485-0.76212zm-1.5242 3.7788q-1.8418 0-2.6039 1.1749-0.76212 1.1432-0.79388 3.4613v0.50808q0 2.5086 0.73036 3.8741 0.76212 1.3337 2.7309 1.3337 1.6195 0 2.3816-1.3337 0.79388-1.3655 0.79388-3.9059 0-5.1126-3.239-5.1126z" fill="#333" stroke-width=".33078" aria-label="p"/>
 </g>
</svg>
