<?xml version="1.0" encoding="UTF-8" standalone="no"?>
<svg
   xmlns:dc="http://purl.org/dc/elements/1.1/"
   xmlns:cc="http://creativecommons.org/ns#"
   xmlns:rdf="http://www.w3.org/1999/02/22-rdf-syntax-ns#"
   xmlns:svg="http://www.w3.org/2000/svg"
   xmlns="http://www.w3.org/2000/svg"
   xmlns:sodipodi="http://sodipodi.sourceforge.net/DTD/sodipodi-0.dtd"
   xmlns:inkscape="http://www.inkscape.org/namespaces/inkscape"
   viewBox="0 0 19.500151 19.5"
   class="w-6 h-6"
   version="1.1"
   id="svg4"
   sodipodi:docname="computer.svg"
   width="19.500151"
   height="19.5"
   style="fill:none;stroke:currentColor;stroke-width:1.5"
   inkscape:version="0.92.4 (5da689c313, 2019-01-14)"
   inkscape:export-filename="C:\Users\N\Desktop\pr\static\images\icons\computer.png"
   inkscape:export-xdpi="1200"
   inkscape:export-ydpi="1200">
  <metadata
     id="metadata10">
    <rdf:RDF>
      <cc:Work
         rdf:about="">
        <dc:format>image/svg+xml</dc:format>
        <dc:type
           rdf:resource="http://purl.org/dc/dcmitype/StillImage" />
        <dc:title></dc:title>
      </cc:Work>
    </rdf:RDF>
  </metadata>
  <defs
     id="defs8" />
  <sodipodi:namedview
     pagecolor="#ffffff"
     bordercolor="#666666"
     borderopacity="1"
     objecttolerance="10"
     gridtolerance="10"
     guidetolerance="10"
     inkscape:pageopacity="0"
     inkscape:pageshadow="2"
     inkscape:window-width="1920"
     inkscape:window-height="986"
     id="namedview6"
     showgrid="false"
     fit-margin-top="0"
     fit-margin-left="0"
     fit-margin-right="0"
     fit-margin-bottom="0"
     inkscape:zoom="9.8333333"
     inkscape:cx="-26.14823"
     inkscape:cy="9.75"
     inkscape:window-x="-11"
     inkscape:window-y="-11"
     inkscape:window-maximized="1"
     inkscape:current-layer="svg4"
     showguides="false" />
  <path
     d="m 6.750075,15 v 1.007 a 3,3 0 0 1 -0.879,2.122 l -0.621,0.621 h 9 l -0.621,-0.621 a 3,3 0 0 1 -0.879,-2.122 V 15 m 6,-12 v 9.75 a 2.25,2.25 0 0 1 -2.25,2.25 h -13.5 a 2.25,2.25 0 0 1 -2.25,-2.25 V 3 m 18,0 a 2.25,2.25 0 0 0 -2.25,-2.25 h -13.5 a 2.25,2.25 0 0 0 -2.25,2.25 m 18,0 v 6.75 a 2.25,2.25 0 0 1 -2.25,2.25 h -13.5 a 2.25,2.25 0 0 1 -2.25,-2.25 V 3"
     id="path2"
     inkscape:connector-curvature="0"
     style="stroke-linecap:round;stroke-linejoin:round" />
</svg>
