<?xml version="1.0" encoding="UTF-8" standalone="no"?>
<svg
   xmlns:dc="http://purl.org/dc/elements/1.1/"
   xmlns:cc="http://creativecommons.org/ns#"
   xmlns:rdf="http://www.w3.org/1999/02/22-rdf-syntax-ns#"
   xmlns:svg="http://www.w3.org/2000/svg"
   xmlns="http://www.w3.org/2000/svg"
   xmlns:sodipodi="http://sodipodi.sourceforge.net/DTD/sodipodi-0.dtd"
   xmlns:inkscape="http://www.inkscape.org/namespaces/inkscape"
   class="icon icon-tabler icon-tabler-brand-mastodon"
   width="18.000025"
   height="20.001741"
   viewBox="0 0 18.000025 20.001741"
   version="1.1"
   id="svg8"
   sodipodi:docname="mastodon-w.svg"
   style="fill:none;stroke:currentColor;stroke-width:2;stroke-linecap:round;stroke-linejoin:round"
   inkscape:version="0.92.4 (5da689c313, 2019-01-14)"
   inkscape:export-filename="C:\Users\N\Desktop\pr\static\images\icons\mastodon-w.png"
   inkscape:export-xdpi="1200"
   inkscape:export-ydpi="1200">
  <metadata
     id="metadata14">
    <rdf:RDF>
      <cc:Work
         rdf:about="">
        <dc:format>image/svg+xml</dc:format>
        <dc:type
           rdf:resource="http://purl.org/dc/dcmitype/StillImage" />
        <dc:title></dc:title>
      </cc:Work>
    </rdf:RDF>
  </metadata>
  <defs
     id="defs12" />
  <sodipodi:namedview
     pagecolor="#ffffff"
     bordercolor="#666666"
     borderopacity="1"
     objecttolerance="10"
     gridtolerance="10"
     guidetolerance="10"
     inkscape:pageopacity="0"
     inkscape:pageshadow="2"
     inkscape:window-width="1920"
     inkscape:window-height="986"
     id="namedview10"
     showgrid="false"
     fit-margin-top="0"
     fit-margin-left="0"
     fit-margin-right="0"
     fit-margin-bottom="0"
     inkscape:zoom="9.8333333"
     inkscape:cx="-4.2711736"
     inkscape:cy="10.001626"
     inkscape:window-x="-11"
     inkscape:window-y="-11"
     inkscape:window-maximized="1"
     inkscape:current-layer="svg8" />
  <path
     d="m 15.648013,13.254115 c -1.816,1.763 -6.6480001,1.626 -6.6480001,1.626 a 18.262,18.262 0 0 1 -3.288,-0.256 c 1.127,1.985 4.12,2.81 8.9820001,2.475 -1.945,2.013 -13.5980001,5.257 -13.6680001,-7.6360003 l -0.026,-1.154 c 0,-3.036 0.023,-4.115 1.352,-5.633 1.671,-1.91000004 6.648,-1.666 6.648,-1.666 0,0 4.9770001,-0.24300004 6.6480001,1.667 1.329,1.518 1.352,2.597 1.352,5.633 0,3.0360003 -0.456,4.0740003 -1.352,4.9440003 z"
     id="path4"
     inkscape:connector-curvature="0"
     style="fill:none;stroke:#ffffff;stroke-opacity:1" />
  <path
     d="m 9.0000129,9.2041147 v -2.926 c 0,-1.258 -0.895,-2.278 -2,-2.278 -1.105,0 -2,1.02 -2,2.278 v 4.7220003 m 4,-4.7220003 c 0,-1.258 0.895,-2.278 2.0000001,-2.278 1.105,0 2,1.02 2,2.278 v 4.7220003"
     id="path6"
     inkscape:connector-curvature="0"
     style="fill:none;stroke:#ffffff;stroke-opacity:1" />
</svg>
