<?xml version="1.0" encoding="UTF-8" standalone="no"?>
<svg
   xmlns:dc="http://purl.org/dc/elements/1.1/"
   xmlns:cc="http://creativecommons.org/ns#"
   xmlns:rdf="http://www.w3.org/1999/02/22-rdf-syntax-ns#"
   xmlns:svg="http://www.w3.org/2000/svg"
   xmlns="http://www.w3.org/2000/svg"
   xmlns:sodipodi="http://sodipodi.sourceforge.net/DTD/sodipodi-0.dtd"
   xmlns:inkscape="http://www.inkscape.org/namespaces/inkscape"
   class="icon icon-tabler icon-tabler-brand-slack"
   width="17.999998"
   height="17.999998"
   viewBox="0 0 17.999998 17.999998"
   version="1.1"
   id="svg12"
   sodipodi:docname="slack-w.svg"
   style="fill:none;stroke:currentColor;stroke-width:2;stroke-linecap:round;stroke-linejoin:round"
   inkscape:version="0.92.4 (5da689c313, 2019-01-14)"
   inkscape:export-filename="C:\Users\N\Desktop\pr\static\images\icons\slack-w.png"
   inkscape:export-xdpi="1200"
   inkscape:export-ydpi="1200">
  <metadata
     id="metadata18">
    <rdf:RDF>
      <cc:Work
         rdf:about="">
        <dc:format>image/svg+xml</dc:format>
        <dc:type
           rdf:resource="http://purl.org/dc/dcmitype/StillImage" />
        <dc:title></dc:title>
      </cc:Work>
    </rdf:RDF>
  </metadata>
  <defs
     id="defs16" />
  <sodipodi:namedview
     pagecolor="#ffffff"
     bordercolor="#666666"
     borderopacity="1"
     objecttolerance="10"
     gridtolerance="10"
     guidetolerance="10"
     inkscape:pageopacity="0"
     inkscape:pageshadow="2"
     inkscape:window-width="1920"
     inkscape:window-height="986"
     id="namedview14"
     showgrid="false"
     fit-margin-top="0"
     fit-margin-left="0"
     fit-margin-right="0"
     fit-margin-bottom="0"
     inkscape:zoom="9.8333333"
     inkscape:cx="-4.2711873"
     inkscape:cy="8.9999991"
     inkscape:window-x="-11"
     inkscape:window-y="-11"
     inkscape:window-maximized="1"
     inkscape:current-layer="svg12" />
  <path
     d="m 8.9999991,8.9999991 v -6 a 2,2 0 0 1 3.9999999,0 v 6 m 0,-2 a 2,2 0 1 1 2,2 H 8.9999991"
     id="path4"
     inkscape:connector-curvature="0"
     style="fill:none;stroke:#ffffff;stroke-opacity:1" />
  <path
     d="m 8.9999991,8.9999991 h 5.9999999 a 2,2 0 0 1 0,3.9999999 H 8.9999991 m 1.9999999,0 a 2,2 0 1 1 -1.9999999,2 V 8.9999991"
     id="path6"
     inkscape:connector-curvature="0"
     style="fill:none;stroke:#ffffff;stroke-opacity:1" />
  <path
     d="m 8.9999991,8.9999991 v 5.9999999 a 2,2 0 0 1 -4,0 V 8.9999991 m 0,1.9999999 a 2,2 0 1 1 -2,-1.9999999 h 6"
     id="path8"
     inkscape:connector-curvature="0"
     style="fill:none;stroke:#ffffff;stroke-opacity:1" />
  <path
     d="m 8.9999991,8.9999991 h -6 a 2,2 0 0 1 0,-4 h 6 m -2,0 a 2,2 0 1 1 2,-2 v 6"
     id="path10"
     inkscape:connector-curvature="0"
     style="fill:none;stroke:#ffffff;stroke-opacity:1" />
</svg>
